<?xml version="1.0" standalone="no"?>
<!DOCTYPE svg PUBLIC "-//W3C//DTD SVG 20010904//EN"
 "http://www.w3.org/TR/2001/REC-SVG-20010904/DTD/svg10.dtd">
<svg version="1.0" xmlns="http://www.w3.org/2000/svg"
 width="700.000000pt" height="700.000000pt" viewBox="0 0 700.000000 700.000000"
 preserveAspectRatio="xMidYMid meet">
<metadata>
Created by potrace 1.14, written by Peter Selinger 2001-2017
</metadata>
<g transform="translate(0.000000,700.000000) scale(0.100000,-0.100000)"
fill="#000000" stroke="none">
<path d="M3280 6994 c-19 -2 -84 -9 -145 -14 -643 -63 -1264 -315 -1805 -734
-140 -108 -473 -442 -584 -586 -411 -530 -654 -1132 -728 -1795 -17 -155 -17
-575 0 -730 57 -513 221 -1003 479 -1431 152 -252 295 -436 507 -652 576 -588
1292 -935 2131 -1034 145 -17 576 -17 730 0 703 78 1351 354 1885 803 134 113
345 325 452 455 433 526 697 1155 780 1859 16 145 17 588 0 730 -86 724 -352
1347 -803 1885 -121 144 -350 368 -494 483 -509 408 -1117 662 -1775 743 -117
15 -553 27 -630 18z m600 -170 c913 -103 1735 -573 2290 -1310 362 -479 583
-1032 656 -1639 23 -190 23 -561 0 -750 -51 -419 -157 -770 -341 -1134 -469
-925 -1332 -1579 -2344 -1775 -404 -79 -864 -80 -1261 -5 -821 157 -1550 610
-2051 1276 -137 181 -215 307 -323 523 -178 357 -283 708 -332 1115 -23 191
-23 560 0 750 75 615 290 1154 652 1635 516 686 1274 1148 2114 1289 304 51
631 60 940 25z"/>
<path d="M4142 5457 c-6 -7 -12 -46 -14 -87 l-3 -75 -372 -3 -372 -2 -3 71
c-2 55 -7 74 -20 83 -13 8 -23 8 -35 0 -14 -9 -19 -28 -21 -83 l-3 -71 -369 0
-370 0 0 75 c0 64 -3 76 -20 85 -14 7 -26 8 -40 0 -16 -8 -20 -23 -22 -83 l-3
-72 -355 -3 c-320 -2 -356 -4 -367 -19 -10 -13 -13 -402 -13 -1864 0 -1666 2
-1849 16 -1863 14 -14 95 -16 743 -16 552 0 730 3 739 12 18 18 14 56 -7 68
-13 6 -253 10 -710 10 l-691 0 0 1300 0 1300 1495 0 1495 0 0 -191 c0 -112 4
-198 10 -210 12 -21 50 -25 68 -7 17 17 17 1449 0 1466 -9 9 -100 12 -350 12
l-338 0 0 78 c0 47 -5 83 -12 90 -16 16 -43 15 -56 -1z m-1664 -349 c3 -109
14 -129 57 -110 23 11 24 16 27 109 l3 98 365 0 365 0 5 -99 c4 -80 8 -101 23
-110 12 -8 22 -8 35 0 14 9 18 30 22 110 l5 99 370 0 370 0 3 -92 c3 -101 14
-119 60 -102 21 8 22 14 22 104 l0 95 305 0 305 0 0 -450 0 -450 -1495 0
-1495 0 0 450 0 450 323 -2 322 -3 3 -97z"/>
<path d="M2490 3620 c-8 -14 -8 -26 0 -40 11 -20 19 -20 837 -18 774 3 827 4
837 21 8 12 8 22 0 35 -10 16 -63 17 -837 20 -818 2 -826 2 -837 -18z"/>
<path d="M4288 2933 l-618 -618 0 -336 c0 -289 2 -338 15 -349 12 -10 74 -10
313 -1 l297 12 633 632 c347 348 632 639 632 647 0 23 -611 630 -635 630 -13
0 -237 -218 -637 -617z m907 247 l260 -260 -180 -179 -180 -180 -272 252 -272
252 187 188 c103 103 189 187 192 187 3 0 122 -117 265 -260z m-434 -425 c145
-135 265 -249 267 -253 1 -4 -171 -180 -382 -391 l-385 -385 -158 -7 c-87 -4
-202 -8 -255 -8 l-98 -1 0 277 0 278 367 367 c203 203 370 368 374 368 3 0
124 -110 270 -245z"/>
<path d="M2498 2925 c-8 -19 -8 -28 2 -40 11 -13 90 -15 684 -13 l671 3 3 23
c8 54 33 52 -684 52 l-664 0 -12 -25z"/>
<path d="M2530 2260 c-8 -14 -8 -26 0 -40 10 -19 21 -20 396 -20 l385 0 8 23
c5 12 5 30 -1 40 -8 16 -37 17 -393 17 -374 0 -385 -1 -395 -20z"/>
</g>
</svg>
